<svg width="270" height="271" viewBox="0 0 270 271" fill="none" xmlns="http://www.w3.org/2000/svg">
<g clip-path="url(#clip0_25_311)">
<circle cx="135" cy="135.414" r="134.705" fill="#161515" stroke="#292532" stroke-width="0.589124"/>
<path d="M-10.7568 127.414H-16.4968L-17.5048 124.418H-24.7008L-25.7928 127.414H-31.4768L-23.1608 106.694H-18.9888L-10.7568 127.414ZM-18.9048 120.218L-21.0328 113.162L-21.1168 113.134L-23.2448 120.218H-18.9048ZM2.92999 127.414H-8.49401V106.694H-3.20201V122.766H2.92999V127.414ZM16.5745 127.414H5.15052V106.694H10.4425V122.766H16.5745V127.414ZM34.3687 127.414H29.0767V111.342H24.9887V106.694H38.4287V111.342H34.3687V127.414ZM57.9174 127.414H52.6254V119.126H45.8494V127.414H40.5574V106.694H45.8494V114.478H52.6254V106.694H57.9174V127.414ZM73.1748 127.414H61.6668V106.694H73.1748V111.342H66.7348V114.562H72.9788V119.21H66.7348V122.766H73.1748V127.414ZM92.1734 127.414H86.8814V111.342H82.7934V106.694L96.2334 106.694V111.342L92.1734 111.342V127.414ZM109.87 127.414H98.3621V106.694H109.87V111.342H103.43V114.562H109.674V119.21H103.43V122.766H109.87V127.414ZM133.707 114.562H128.163C127.267 112.294 125.307 110.95 123.151 110.95C119.847 110.95 117.607 113.778 117.607 116.998C117.607 120.358 119.903 123.158 123.179 123.158C125.279 123.158 127.071 121.982 128.163 119.658H133.707C132.419 124.642 128.135 127.806 123.235 127.806C120.351 127.806 117.635 126.798 115.507 124.698C113.267 122.514 112.315 119.882 112.315 116.746C112.315 111.258 117.047 106.302 122.983 106.302C125.839 106.302 128.135 107.086 130.207 108.85C132.167 110.53 133.343 112.434 133.707 114.562ZM153.812 127.414H148.52V119.126H141.744V127.414H136.452V106.694H141.744V114.478H148.52V106.694H153.812V127.414ZM175.033 127.414H170.441L162.489 114.758L162.629 127.414H157.561V106.694H162.125L170.189 119.798L169.965 106.694H175.033V127.414ZM189.083 127.806C183.315 127.806 177.911 123.662 177.911 117.53C177.911 111.118 182.531 106.302 188.831 106.302C194.879 106.302 199.779 110.978 199.779 116.914C199.779 123.046 195.019 127.806 189.083 127.806ZM188.915 123.158C192.191 123.158 194.487 120.386 194.487 117.082C194.487 113.834 192.163 110.95 188.831 110.95C185.527 110.95 183.203 113.722 183.203 116.998C183.203 120.414 185.527 123.158 188.915 123.158ZM214.188 127.414H202.764V106.694H208.056V122.766H214.188V127.414ZM226.271 127.806C220.503 127.806 215.099 123.662 215.099 117.53C215.099 111.118 219.719 106.302 226.019 106.302C232.067 106.302 236.967 110.978 236.967 116.914C236.967 123.046 232.207 127.806 226.271 127.806ZM226.103 123.158C229.379 123.158 231.675 120.386 231.675 117.082C231.675 113.834 229.351 110.95 226.019 110.95C222.715 110.95 220.391 113.722 220.391 116.998C220.391 120.414 222.715 123.158 226.103 123.158ZM260.979 115.626V116.802C260.979 122.374 256.891 127.834 249.919 127.834C243.787 127.834 238.915 123.046 238.915 116.97C238.915 110.698 243.983 106.302 250.003 106.302C254.679 106.302 259.187 109.466 260.363 113.638H254.427C253.447 111.93 251.851 110.95 249.863 110.95C246.531 110.95 244.207 113.638 244.207 116.97C244.207 120.414 246.391 123.186 249.891 123.186C252.355 123.186 254.203 121.982 254.847 119.854H248.659V115.626H260.979ZM269.002 127.414H263.71V106.694H269.002V127.414ZM284.269 127.414H272.761V106.694H284.269V111.342H277.829V114.562H284.073V119.21H277.829V122.766H284.269V127.414ZM300.909 112.742H295.673C295.449 111.258 294.833 110.726 293.797 110.726C292.817 110.726 291.977 111.426 291.977 112.35C291.977 113.582 293.097 114.142 295.365 115.122C299.929 117.082 301.077 118.734 301.077 121.45C301.077 125.454 298.333 127.806 293.853 127.806C289.345 127.806 286.377 125.454 286.377 121.002V120.554H291.641C291.669 122.262 292.509 123.382 293.825 123.382C294.917 123.382 295.813 122.514 295.813 121.394C295.813 119.742 293.517 119.014 291.641 118.258C288.253 116.886 286.713 115.094 286.713 112.406C286.713 108.878 290.129 106.302 293.937 106.302C295.309 106.302 296.513 106.61 297.605 107.17C299.817 108.318 300.881 109.97 300.909 112.742ZM-26.7233 163.414H-32.0153V155.882L-38.2033 142.694H-32.4633L-29.3833 151.01L-26.2753 142.694H-20.5913L-26.7233 155.882V163.414ZM-9.29551 163.806C-15.0635 163.806 -20.4675 159.662 -20.4675 153.53C-20.4675 147.118 -15.8475 142.302 -9.54751 142.302C-3.49951 142.302 1.40049 146.978 1.40049 152.914C1.40049 159.046 -3.35951 163.806 -9.29551 163.806ZM-9.46351 159.158C-6.18751 159.158 -3.89151 156.386 -3.89151 153.082C-3.89151 149.834 -6.21551 146.95 -9.54751 146.95C-12.8515 146.95 -15.1755 149.722 -15.1755 152.998C-15.1755 156.414 -12.8515 159.158 -9.46351 159.158ZM14.8009 155.35V142.694H20.0929V155.378C20.0929 157.534 19.7569 159.158 19.0569 160.278C17.6849 162.49 15.3609 163.806 12.2249 163.806C10.4889 163.806 9.0049 163.47 7.8009 162.77C5.3649 161.342 4.1889 159.41 4.1889 155.406V142.694H9.4809V155.322C9.4809 157.898 10.2929 159.158 12.1689 159.158C13.9609 159.158 14.8009 158.262 14.8009 155.35ZM49.9083 163.414H45.3163L37.3643 150.758L37.5043 163.414H32.4363V142.694H37.0003L45.0643 155.798L44.8403 142.694H49.9083V163.414ZM65.1904 163.414H53.6824V142.694H65.1904V147.342H58.7504V150.562H64.9944V155.21H58.7504V158.766H65.1904V163.414ZM79.9834 163.414H68.4754V142.694H79.9834V147.342H73.5434V150.562H79.7874V155.21H73.5434V158.766H79.9834V163.414ZM90.4083 163.414H82.9883V142.694H90.0443C92.6203 142.694 94.6643 143.142 96.1203 143.954C99.0603 145.634 100.908 148.826 100.908 153.054C100.908 159.886 96.8763 163.414 90.4083 163.414ZM88.2803 158.766H90.6603C93.7123 158.766 95.6163 156.862 95.6163 153.082C95.6163 149.386 93.7403 147.342 90.6883 147.342H88.2803V158.766ZM117.982 163.414H112.69V142.694H117.982V163.414ZM139.213 163.414H134.621L126.669 150.758L126.809 163.414H121.741V142.694H126.305L134.369 155.798L134.145 142.694H139.213V163.414ZM161.904 163.806C156.136 163.806 150.732 159.662 150.732 153.53C150.732 147.118 155.352 142.302 161.652 142.302C167.7 142.302 172.6 146.978 172.6 152.914C172.6 159.046 167.84 163.806 161.904 163.806ZM161.736 159.158C165.012 159.158 167.308 156.386 167.308 153.082C167.308 149.834 164.984 146.95 161.652 146.95C158.348 146.95 156.024 149.722 156.024 152.998C156.024 156.414 158.348 159.158 161.736 159.158ZM192.916 163.414H188.324L180.372 150.758L180.512 163.414H175.444V142.694H180.008L188.072 155.798L187.848 142.694H192.916V163.414ZM208.198 163.414H196.69V142.694H208.198V147.342H201.758V150.562H208.002V155.21H201.758V158.766H208.198V163.414ZM225.192 163.414H220.124V142.694H227.124C229.336 142.666 230.988 142.974 232.08 143.478C234.32 144.514 235.72 146.894 235.72 149.694C235.72 153.53 233.592 156.918 227.656 156.918H225.192V163.414ZM225.192 152.27H227.46C229.588 152.27 230.652 151.542 230.652 149.778C230.652 148.098 229.616 147.342 227.264 147.342H225.192V152.27ZM249.489 163.414H238.065V142.694H243.357V158.766H249.489V163.414ZM271.513 163.414H265.773L264.765 160.418H257.569L256.477 163.414H250.793L259.109 142.694H263.281L271.513 163.414ZM263.365 156.218L261.237 149.162L261.153 149.134L259.025 156.218H263.365ZM292.793 150.562H287.249C286.353 148.294 284.393 146.95 282.237 146.95C278.933 146.95 276.693 149.778 276.693 152.998C276.693 156.358 278.989 159.158 282.265 159.158C284.365 159.158 286.157 157.982 287.249 155.658H292.793C291.505 160.642 287.221 163.806 282.321 163.806C279.437 163.806 276.721 162.798 274.593 160.698C272.353 158.514 271.401 155.882 271.401 152.746C271.401 147.258 276.133 142.302 282.069 142.302C284.925 142.302 287.221 143.086 289.293 144.85C291.253 146.53 292.429 148.434 292.793 150.562ZM307.046 163.414H295.538V142.694H307.046V147.342H300.606V150.562H306.85V155.21H300.606V158.766H307.046V163.414Z" fill="#B6A1DE"/>
<path d="M122.304 18.1656C122.484 18.2136 122.7 18.2376 122.892 18.2376C123.66 18.2376 124.044 17.8776 124.044 16.9176V11.0136H125.4V16.9176C125.4 18.6696 124.488 19.4856 123.132 19.4856C122.892 19.4856 122.496 19.4376 122.304 19.3896V18.1656ZM132.445 19.4136L131.701 17.4336H128.245L127.501 19.4136H126.049L129.313 11.0136H130.621L133.897 19.4136H132.445ZM128.701 16.2216H131.245L129.973 12.8616L128.701 16.2216ZM136.282 19.4136L133.186 11.0136H134.626L136.966 17.7576L139.342 11.0136H140.77L137.662 19.4136H136.282ZM146.449 19.4136L145.705 17.4336H142.249L141.505 19.4136H140.053L143.317 11.0136H144.625L147.901 19.4136H146.449ZM142.705 16.2216H145.249L143.977 12.8616L142.705 16.2216Z" fill="#B6A1DE"/>
<path d="M125.912 259.414V251.014H127.316V259.414H125.912ZM132.798 259.51C130.374 259.51 128.598 257.698 128.598 255.214C128.598 252.73 130.374 250.918 132.798 250.918C135.222 250.918 136.998 252.73 136.998 255.214C136.998 257.698 135.222 259.51 132.798 259.51ZM132.798 258.274C134.418 258.274 135.582 256.99 135.582 255.214C135.582 253.438 134.418 252.142 132.798 252.142C131.178 252.142 130.014 253.438 130.014 255.214C130.014 256.99 131.178 258.274 132.798 258.274ZM139.727 259.414V252.238H137.135V251.014H143.723V252.238H141.131V259.414H139.727Z" fill="#B6A1DE"/>
</g>
<defs>
<clipPath id="clip0_25_311">
<rect x="-0.000244141" y="0.413574" width="270" height="270" rx="135" fill="white"/>
</clipPath>
</defs>
</svg>
